<svg xmlns="http://www.w3.org/2000/svg" xmlns:xlink="http://www.w3.org/1999/xlink" width="180.833" height="32.039" viewBox="0 0 180.833 32.039">
    <defs>
        <linearGradient id="ecu1u7828a" x1=".592" y1=".926" x2=".417" y2=".087" gradientUnits="objectBoundingBox">
            <stop offset=".1" stop-color="#194aad"/>
            <stop offset=".499" stop-color="#238fca"/>
            <stop offset=".8" stop-color="#2bbfdf"/>
        </linearGradient>
        <linearGradient id="7ap1c4iwxb" x1=".5" y1="0" x2=".5" y2="1" xlink:href="#ecu1u7828a"/>
    </defs>
    <g data-name="coti explorer logo">
        <g data-name="Group 5669">
            <g data-name="Group 5672">
                <path data-name="Path 4978" d="M177.208 28.13c3.487 0 5.341 2.585 5.341 5.78 0 .317-.073 1.024-.073 1.024h-9a4.033 4.033 0 0 0 4.244 4.073 5.884 5.884 0 0 0 3.658-1.439l.976 1.731a7.345 7.345 0 0 1-4.78 1.756 6.285 6.285 0 0 1-6.536-6.463c0-3.926 2.659-6.463 6.171-6.463m2.927 5.024a2.912 2.912 0 0 0-2.976-3.147 3.536 3.536 0 0 0-3.609 3.147z" transform="translate(-82.708 -13.603)" style="fill:#6adabd"/>
                <path data-name="Path 4979" d="M201.983 36.233s-.2.39-.366.683l-2.585 4.122h-2.683l4.194-6.342-3.975-6h2.707l2.292 3.756c.2.317.415.732.415.732h.049s.22-.415.415-.732l2.292-3.756h2.708l-3.976 6 4.194 6.342h-2.682l-2.582-4.122c-.171-.292-.366-.683-.366-.683z" transform="translate(-94.948 -13.877)" style="fill:#6adabd"/>
                <path data-name="Path 4980" d="M222.89 28.423h2.171v1.048a8.6 8.6 0 0 1-.049.9h.049a4.475 4.475 0 0 1 4.146-2.243c3.317 0 5.414 2.633 5.414 6.463 0 3.927-2.366 6.463-5.585 6.463a4.3 4.3 0 0 1-3.78-2.024h-.049s.049.439.049 1.073v5.537h-2.366zm5.78 10.609c1.951 0 3.561-1.609 3.561-4.414 0-2.682-1.439-4.414-3.487-4.414-1.853 0-3.561 1.293-3.561 4.439 0 2.195 1.219 4.39 3.487 4.39" transform="translate(-107.782 -13.604)" style="fill:#6adabd"/>
                <path data-name="Path 4981" d="M250.939 19.252h2.366V32.69c0 1.488.585 1.756 1.317 1.756a3.868 3.868 0 0 0 .415-.024v2.1a6.6 6.6 0 0 1-.78.049c-1.342 0-3.318-.366-3.318-3.463z" transform="translate(-121.346 -9.31)" style="fill:#6adabd"/>
                <path data-name="Path 4982" d="M268.648 28.131a6.466 6.466 0 1 1-6.658 6.438 6.437 6.437 0 0 1 6.658-6.438m0 10.877a4.418 4.418 0 1 0-4.244-4.439 4.263 4.263 0 0 0 4.244 4.439" transform="translate(-126.69 -13.604)" style="fill:#6adabd"/>
                <path data-name="Path 4983" d="M293.2 28.56h2.3v2.146a8.9 8.9 0 0 1-.049.926h.049a3.965 3.965 0 0 1 4.513-3.17V30.8a3.4 3.4 0 0 0-.683-.073 3.745 3.745 0 0 0-3.464 2.9 7.513 7.513 0 0 0-.292 2.219V40.9H293.2z" transform="translate(-141.784 -13.74)" style="fill:#6adabd"/>
                <path data-name="Path 4984" d="M315.29 28.13c3.487 0 5.341 2.585 5.341 5.78 0 .317-.073 1.024-.073 1.024h-9a4.033 4.033 0 0 0 4.244 4.073 5.884 5.884 0 0 0 3.658-1.439l.976 1.731a7.344 7.344 0 0 1-4.78 1.756 6.284 6.284 0 0 1-6.536-6.463c0-3.926 2.658-6.463 6.17-6.463m2.927 5.024a2.912 2.912 0 0 0-2.976-3.147 3.536 3.536 0 0 0-3.609 3.147z" transform="translate(-149.48 -13.603)" style="fill:#6adabd"/>
                <path data-name="Path 4985" d="M336.981 28.56h2.292v2.146a8.89 8.89 0 0 1-.049.926h.049a3.965 3.965 0 0 1 4.513-3.17V30.8a3.4 3.4 0 0 0-.683-.073 3.745 3.745 0 0 0-3.464 2.9 7.514 7.514 0 0 0-.292 2.219V40.9h-2.366z" transform="translate(-162.953 -13.74)" style="fill:#6adabd"/>
            </g>
        </g>
        <g data-name="Group 5673">
            <path data-name="Path 1488" d="M440.891 93.534a8.893 8.893 0 0 1 9.188-8.947c5.375 0 9.435 3.822 9.437 8.89a9.315 9.315 0 0 1-18.625.057zm15.215.042v-.279a5.943 5.943 0 0 0-7.254-5.772 6.119 6.119 0 0 0-4.429 7.506 5.911 5.911 0 0 0 11.684-1.456z" transform="translate(-391.685 -75.147)" style="fill:#fff"/>
            <path data-name="Path 1489" d="m313.495 87.1-1.478 2.158a19.479 19.479 0 0 0-2.541-1.384c-4.513-1.664-8.6 1.58-8.156 6.42.381 4.118 4.376 6.5 8.425 4.96a24.418 24.418 0 0 0 3-1.642l1.251 2.261a8.238 8.238 0 0 1-3.065 2.053c-3.744 1.363-7.263 1.014-10.311-1.692a8.485 8.485 0 0 1-2.716-6.878 8.713 8.713 0 0 1 9.028-8.821 8.964 8.964 0 0 1 6.132 2.082c.112.1.218.2.321.309a1.223 1.223 0 0 1 .11.174z" transform="translate(-264.651 -75.1)" style="fill:#fff"/>
            <path data-name="Path 1490" d="M606.586 53.48h-2.048v-2.648h2.279v-4.918h3.118v4.875h4.1v2.689h-4.081v7.232c0 2.877 1.829 4.513 4.694 4.2.072-.008.145 0 .254 0v2.825a7.281 7.281 0 0 1-3.451-.121c-3.268-.774-4.868-2.825-4.87-6.186v-7.252z" transform="translate(-537.069 -40.79)" style="fill:#fff"/>
            <path data-name="Path 1493" d="M716.351 92.251h3.2v16.762h-3.2z" transform="translate(-636.403 -81.956)" style="fill:#fff"/>
            <path data-name="Path 1494" d="M716.171 33.948v-3.33h3.321v3.33z" transform="translate(-636.243 -27.201)" style="fill:#fff"/>
        </g>
        <g data-name="Group 5674">
            <path data-name="Path 1495" d="M.681 8.6C.223 8.593 0 8.781 0 9.253V20.07c0 .456.233.651.675.656 5.233.053 11.548-4.578 16.851-8.215L17.536 0C12.312 3.581 5.786 8.673.681 8.6z" style="fill:url(#ecu1u7828a)"/>
            <path data-name="Path 1496" d="M117.43 24.411c.457.007.68-.182.68-.654V12.94c0-.456-.233-.651-.675-.656-5.233-.053-11.548 4.578-16.851 8.215l-.009 12.511c5.225-3.581 11.749-8.673 16.855-8.599z" transform="translate(-89.351 -10.913)" style="fill:url(#7ap1c4iwxb)"/>
            <path data-name="Path 1497" d="m106.908 55.219.005-7.146c-2.168 1.347-4.3 2.854-6.3 4.221l-.005 7.146c2.17-1.346 4.307-2.854 6.3-4.221z" transform="translate(-89.382 -42.708)" style="fill:#194aad"/>
        </g>
    </g>
</svg>
